<svg width="31" height="31" viewBox="0 0 31 31" fill="none" xmlns="http://www.w3.org/2000/svg">
<path fill-rule="evenodd" clip-rule="evenodd" d="M5 15.4465C5 9.78561 9.58908 5.19653 15.25 5.19653C20.9109 5.19653 25.5 9.78561 25.5 15.4465C25.5 21.1075 20.9109 25.6965 15.25 25.6965C9.58908 25.6965 5 21.1075 5 15.4465ZM15.25 3.19653C8.48451 3.19653 3 8.68105 3 15.4465C3 22.212 8.48451 27.6965 15.25 27.6965C22.0155 27.6965 27.5 22.212 27.5 15.4465C27.5 8.68105 22.0155 3.19653 15.25 3.19653ZM11.6153 20.1899C11.0667 20.2536 10.5704 19.8605 10.5067 19.3119C10.443 18.7633 10.8361 18.2669 11.3847 18.2032C12.2054 18.1079 13.4377 18.0403 15.25 18.0403C17.0622 18.0403 18.2945 18.1079 19.1153 18.2032C19.6639 18.2669 20.057 18.7633 19.9933 19.3119C19.9296 19.8605 19.4332 20.2536 18.8846 20.1899C18.1702 20.1069 17.0225 20.0403 15.25 20.0403C13.4775 20.0403 12.3297 20.1069 11.6153 20.1899ZM10.5 12.9465C10.5 12.3942 10.9477 11.9465 11.5 11.9465H11.5112C12.0634 11.9465 12.5112 12.3942 12.5112 12.9465C12.5112 13.4988 12.0634 13.9465 11.5112 13.9465H11.5C10.9477 13.9465 10.5 13.4988 10.5 12.9465ZM19 11.9465C18.4477 11.9465 18 12.3942 18 12.9465C18 13.4988 18.4477 13.9465 19 13.9465H19.0112C19.5634 13.9465 20.0112 13.4988 20.0112 12.9465C20.0112 12.3942 19.5634 11.9465 19.0112 11.9465H19Z" fill="#FF9800"/>
</svg>
