<svg width="31" height="31" viewBox="0 0 31 31" fill="none" xmlns="http://www.w3.org/2000/svg">
<path fill-rule="evenodd" clip-rule="evenodd" d="M5 15.3896C5 9.72873 9.58908 5.13965 15.25 5.13965C20.9109 5.13965 25.5 9.72873 25.5 15.3896C25.5 21.0506 20.9109 25.6396 15.25 25.6396C9.58908 25.6396 5 21.0506 5 15.3896ZM15.25 3.13965C8.48451 3.13965 3 8.62416 3 15.3896C3 22.1551 8.48451 27.6396 15.25 27.6396C22.0155 27.6396 27.5 22.1551 27.5 15.3896C27.5 8.62416 22.0155 3.13965 15.25 3.13965ZM12.2568 19.7933C11.8958 20.2113 11.2643 20.2574 10.8464 19.8965C10.4284 19.5355 10.3822 18.904 10.7432 18.486C11.7061 17.3711 13.1753 16.5816 15.25 16.5816C17.3247 16.5816 18.7939 17.3711 19.7568 18.486C20.1178 18.904 20.0716 19.5355 19.6536 19.8965C19.2356 20.2574 18.6042 20.2113 18.2432 19.7933C17.6709 19.1307 16.76 18.5816 15.25 18.5816C13.7399 18.5816 12.8291 19.1307 12.2568 19.7933ZM10.5 12.8896C10.5 12.3374 10.9477 11.8896 11.5 11.8896H11.5112C12.0634 11.8896 12.5112 12.3374 12.5112 12.8896C12.5112 13.4419 12.0634 13.8896 11.5112 13.8896H11.5C10.9477 13.8896 10.5 13.4419 10.5 12.8896ZM19 11.8896C18.4477 11.8896 18 12.3374 18 12.8896C18 13.4419 18.4477 13.8896 19 13.8896H19.0112C19.5634 13.8896 20.0112 13.4419 20.0112 12.8896C20.0112 12.3374 19.5634 11.8896 19.0112 11.8896H19Z" fill="#FF0D25"/>
</svg>
